<?xml version="1.0" encoding="utf-8"?>
<!-- Generator: Adobe Illustrator 16.0.0, SVG Export Plug-In . SVG Version: 6.00 Build 0)  -->
<!DOCTYPE svg PUBLIC "-//W3C//DTD SVG 1.1//EN" "http://www.w3.org/Graphics/SVG/1.1/DTD/svg11.dtd">
<svg version="1.1" xmlns="http://www.w3.org/2000/svg" xmlns:xlink="http://www.w3.org/1999/xlink" x="0px" y="0px"
	 width="595.28px" height="416.693px" viewBox="0 0 595.28 416.693" enable-background="new 0 0 595.28 416.693"
	 xml:space="preserve">
<g id="Capa_3">
</g>
<g id="Layer_1">
	<g>
		<defs>
			<path id="SVGID_1_" d="M505.122,369.701l88.775,0.009l-44.097-76.568L505.122,369.701z M7.845,331.224H7.817v57.948h25.899
				v-21.367h24.984v-26.15H33.717v-10.355h0.048c0-0.02-0.008-0.032-0.008-0.055c0-6.906,5.596-12.508,12.498-12.508
				c6.914,0,12.505,5.602,12.505,12.508c0,0.022,0,0.035,0,0.055h25.912v-0.055c0-21.222-17.205-38.419-38.417-38.419
				C25.054,292.826,7.853,310.015,7.845,331.224 M242.56,331.245v0.055c0.024,21.189,17.206,38.354,38.414,38.354
				c21.189,0,38.371-17.164,38.402-38.354h-25.911c-0.037,6.871-5.616,12.438-12.491,12.438c-6.898,0-12.466-5.567-12.497-12.438
				v-0.055c0-6.906,5.583-12.508,12.497-12.508v-25.911C259.745,292.826,242.56,310.023,242.56,331.245 M374.27,331.299v-0.055
				c0-6.906,5.588-12.508,12.493-12.508c6.902,0,12.495,5.602,12.495,12.508c0,0.022,0,0.035,0,0.055
				c-0.037,6.871-5.62,12.438-12.495,12.438C379.881,343.738,374.313,338.17,374.27,331.299 M348.346,331.245v0.055
				c0.039,21.189,17.206,38.354,38.417,38.354c21.188,0,38.37-17.164,38.409-38.354v-0.055c0-21.222-17.205-38.419-38.409-38.419
				C365.543,292.826,348.346,310.023,348.346,331.245 M137.005,292.784v38.516h-0.02c-0.024,6.871-5.612,12.438-12.486,12.438
				c-6.878,0-12.466-5.567-12.498-12.438h-0.055v-38.516H86.063v38.528h0.02c0.031,21.177,17.213,38.341,38.417,38.341
				c21.188,0,38.378-17.164,38.402-38.341h0.048v-38.528H137.005z M164.506,331.132h-0.028v38.521h25.936v-38.517h0.008
				c0.04-6.862,5.624-12.427,12.506-12.427c6.882,0,12.466,5.564,12.486,12.427h0.052v38.517h25.895v-38.521h-0.02
				c-0.036-21.186-17.217-38.349-38.414-38.349S164.558,309.947,164.506,331.132 M426.73,331.132h-0.041v38.521h25.957v-38.517
				h0.007c0.028-6.862,5.608-12.427,12.49-12.427c6.886,0,12.475,5.564,12.498,12.427h0.056v38.517h25.876v-38.521h-0.008
				c-0.04-21.186-17.226-38.349-38.422-38.349C443.956,292.784,426.774,309.947,426.73,331.132 M320.889,369.625h25.951v-76.889
				h-25.951V369.625z"/>
		</defs>
		<use xlink:href="#SVGID_1_"  overflow="visible" fill="#111111"/>
		<clipPath id="SVGID_2_">
			<use xlink:href="#SVGID_1_"  overflow="visible"/>
		</clipPath>
		<rect x="7.817" y="292.736" clip-path="url(#SVGID_2_)" fill="#111111" width="586.08" height="96.437"/>
	</g>
	<g>
		<defs>
			<path id="SVGID_3_" d="M81.924,141.172c0-20.699,16.775-37.482,37.486-37.482c20.702,0,37.497,16.783,37.497,37.482
				c0,20.706-16.795,37.501-37.497,37.501C98.699,178.673,81.924,161.877,81.924,141.172 M4.157,141.172
				c0,63.656,51.601,115.244,115.253,115.244c63.636,0,115.244-51.587,115.244-115.244c0-63.641-51.608-115.241-115.244-115.241
				C55.758,25.931,4.157,77.531,4.157,141.172"/>
		</defs>
		<use xlink:href="#SVGID_3_"  overflow="visible" fill="#111111"/>
		<clipPath id="SVGID_4_">
			<use xlink:href="#SVGID_3_"  overflow="visible"/>
		</clipPath>
		<rect x="4.157" y="25.931" clip-path="url(#SVGID_4_)" fill="#111111" width="230.497" height="230.484"/>
	</g>
</g>
</svg>
