<?xml version="1.0" encoding="utf-8"?>
<!-- Generator: Adobe Illustrator 16.0.0, SVG Export Plug-In . SVG Version: 6.00 Build 0)  -->
<!DOCTYPE svg PUBLIC "-//W3C//DTD SVG 1.1//EN" "http://www.w3.org/Graphics/SVG/1.1/DTD/svg11.dtd">
<svg version="1.1" id="Capa_1" xmlns="http://www.w3.org/2000/svg" xmlns:xlink="http://www.w3.org/1999/xlink" x="0px" y="0px"
	 width="960px" height="560px" viewBox="0 0 960 560" enable-background="new 0 0 960 560" xml:space="preserve">
<g>
	<path d="M103.485,153.884V14.065h60.657c14.117,0,25.255,3.155,33.413,9.458c8.154,6.307,12.234,15.215,12.234,26.73
		c0,15.215-6.445,25.223-19.328,30.019c7.402,2.056,13.466,5.792,18.195,11.207c4.729,5.416,7.094,12.716,7.094,21.898
		c0,12.886-4.593,22.859-13.776,29.917c-9.185,7.061-22.413,10.589-39.684,10.589H103.485z M139.673,68.759h19.328
		c9.458,0,14.188-4.18,14.188-12.542c0-8.497-4.595-12.748-13.776-12.748h-19.74V68.759z M139.673,124.481h22.412
		c10.827,0,16.244-4.865,16.244-14.599c0-9.592-5.417-14.392-16.244-14.392h-22.412V124.481z"/>
	<path d="M271.472,110.087v43.797h-37.422V14.065h56.544c17.408,0,30.977,4.594,40.713,13.776
		c9.73,9.185,14.597,21.11,14.597,35.777c0,19.328-8.5,32.898-25.496,40.711l28.993,49.554h-40.506l-24.675-43.797H271.472z
		 M271.472,81.507h17.271c13.021,0,19.533-5.963,19.533-17.888c0-11.926-6.513-17.889-19.533-17.889h-17.271V81.507z"/>
	<path d="M455.494,153.884l-7.402-16.86h-48.731l-6.99,16.86h-36.6L423.83,11.598c0.272-0.684,0.683-1.027,1.234-1.027
		c0.545,0,0.957,0.343,1.232,1.027l67.854,142.286H455.494z M423.419,80.273l-12.542,29.609h25.29L423.419,80.273z"/>
	<path d="M630.062,156.352l-87.796-72.172v69.705h-35.161V12.215c0-1.78,0.956-1.918,2.879-0.412l87.797,72.376V14.065h35.161
		V155.94C632.941,157.72,631.98,157.857,630.062,156.352z"/>
	<path d="M657.201,153.884V14.065h54.076c20.563,0,37.489,6.342,50.788,19.02c13.294,12.681,19.943,29.644,19.943,50.89
		c0,21.249-6.649,38.212-19.943,50.889c-13.299,12.682-30.226,19.021-50.788,19.021H657.201z M694.624,122.22h12.542
		c11.238,0,20.151-3.461,26.73-10.384c6.579-6.92,9.869-16.208,9.869-27.861c0-11.649-3.29-20.937-9.869-27.861
		c-6.579-6.921-15.492-10.383-26.73-10.383h-12.542V122.22z"/>
</g>
<path fill="#29ABE2" d="M285.143,163.998c-1.116-2.783-2.232-2.783-3.341,0l-60.98,131.34l-73.75-133.462l-2.509-4.456
	c-6.579-9.833-17.779-16.311-30.497-16.311c-20.254,0-36.668,16.418-36.668,36.672c0,4.365,0.803,8.535,2.205,12.421l3.579,7.291
	l123.858,251.969c0.555,1.392,1.392,2.086,2.508,2.086c1.109,0,1.944-0.694,2.506-2.086l70.171-152.456l35.757,77.278l33.978-69.987
	L285.143,163.998z"/>
<polygon fill="none" points="395.672,364 447.047,364 421.15,303.854 "/>
<path d="M842.123,390.094h-0.229c0.078,0,0.157,0.012,0.235,0.012L842.123,390.094z"/>
<g>
	<path d="M590,164h-75v183.091l-90.783-187.538L283.733,453h74.344l14.206-33h98.989l15.036,33h78.522h24.458H677v-63h-87V164z
		 M395.672,364l25.478-60.146L447.047,364H395.672z"/>
	<path d="M838.419,390.105c-0.025,0-0.051,0.059-0.078,0.057c1.169-0.136,2.351-0.162,3.554-0.162H758V164h-78v226.094V453h155.354
		l0,0c0,0,1.815,0,2.772,0c12.273,0,22.915-7.713,27.991-18.033c2.038-4.141,3.212-8.791,3.212-13.718
		C869.329,404.126,855.51,390.233,838.419,390.105z"/>
</g>
<text transform="matrix(1 0 0 1 203.6484 530.6045)" font-family="'HelveticaNeueCE-Thin'" font-size="68.2126">Inspire your posts</text>
</svg>
